inDegrees=yes
name=ik_MT_012005D6_009-001_orientations
DataType=double
version=3
OpenSimVersion=4.4-2022-07-23-0e9fedc
endheader
time	pelvis_tilt	pelvis_list	pelvis_rotation	pelvis_tx	pelvis_ty	pelvis_tz	hip_flexion_r	hip_adduction_r	hip_rotation_r	knee_angle_r	knee_angle_r_beta	ankle_angle_r	subtalar_angle_r	mtp_angle_r	hip_flexion_l	hip_adduction_l	hip_rotation_l	knee_angle_l	knee_angle_l_beta	ankle_angle_l	subtalar_angle_l	mtp_angle_l	lumbar_extension	lumbar_bending	lumbar_rotation	arm_flex_r	arm_add_r	arm_rot_r	elbow_flex_r	pro_sup_r	wrist_flex_r	wrist_dev_r	arm_flex_l	arm_add_l	arm_rot_l	elbow_flex_l	pro_sup_l	wrist_flex_l	wrist_dev_l
6.079999999999915	313.4231752420453	-6473.44479489838	9359.293989294834	0	0.93	0	-3.406142054539611	-24.75698094480109	11.32673078590179	24.03953577750735	0.4195690499684782	-2.570053106250281	-3.503870425454353e-22	-3.231776145229848e-28	19.84004473206441	7.1462579995757	-2.35989929631042	0.02469791948822157	0.0004310600134619393	25.81251809367702	-2.046451075959489e-25	4.696303618337016e-28	1.707403971133269e-30	2.586797278539411e-23	1.072842370174089e-31	-2.949693316371752e-22	5.619603824770052e-28	-4.480407113739612e-20	0	0	-3.470856676996272e-24	-4.507692353179216e-22	1.260589286306146e-19	-2.594821892206555e-19	-4.019106726090487e-20	0	0	8.10742481527702e-23	-3.934196377795433e-22
6.089999999999915	313.2898083231552	-6473.448689363715	9359.171158949131	-1.110716154567144e-39	0.93	-1.814648671517025e-28	-3.754058646778181	-24.94455605246686	11.43311461915217	24.56851179714685	0.4288014231752817	-2.996914062869954	7.285135296049922e-17	-9.79430803188841e-17	19.97255519038099	7.026702835917793	-2.318305423701639	0.02463996025874325	0.0004300484340756237	25.85024544683307	2.262732348803042e-16	1.942787198282251e-17	-1.492507525984937e-23	5.650268709526607e-18	2.181876978026142e-17	-6.266182641849176e-17	2.540483479836076e-17	-1.380085958298454e-17	2.875472418626591e-14	0	-4.69985411794451e-21	-3.844470095091493e-20	1.989271618666726e-16	6.880819048740137e-17	5.023578861948238e-17	6.732040650856325e-14	0	-3.799497108106532e-21	4.163986469787792e-20
6.099999999999914	313.1826666559628	-6473.457261126089	9359.03166849272	0	0.93	0	-4.125049438848275	-25.10064469099713	11.55175637100134	25.04299765470845	0.4370827636438805	-3.404804012306458	0	0	20.09946401123964	6.899446345119225	-2.279805346272942	0.02455550357221116	0.0004285743868203138	25.86826989501835	0	0	0	0	0	0	0	0	1.495464503436619e-38	7.914523368170177e-39	0	0	0	0	0	1.495464503436619e-38	7.914523368170177e-39	0	0
6.109999999999914	313.1059405922203	-6473.473493808655	9358.880612091416	0	0.93	0	-4.546030855043743	-25.22549655718889	11.66542225342902	25.43156754238234	0.4438645875578944	-3.764839926390577	0	0	20.21315897030611	6.763648113410563	-2.233698261903217	0.02451961389464584	0.0004279479937793199	25.88327396609134	0	0	0	0	0	0	0	0	1.619321065828517e-39	0	0	0	0	0	0	5.635595572546192e-39	0	0	0
6.119999999999914	313.0708588607818	-6473.500843081493	9358.718054213976	0	0.93	0	-5.053048169530553	-25.31980256421972	11.74254281178871	25.71479045746009	0.4488077599430974	-4.056178677480386	-4.817607834819288e-21	9.342690175305318e-23	20.27715044414866	6.612132797090697	-2.183698597220777	0.02456438022901422	0.0004287293137080968	25.91835746887822	3.995923332280761e-21	-1.108749306917939e-22	6.371943474833443e-25	-6.4327809929078e-23	2.324450961178217e-25	2.868319933168686e-18	5.441177079766265e-20	-6.563220425538717e-15	7.079218666541525e-16	7.079219558840406e-16	-2.978538433704622e-23	-1.586319222388806e-23	1.900241075631492e-13	9.016084446210688e-16	-9.486600526838136e-16	7.079218707861342e-16	7.079219319141435e-16	-1.209769539953654e-22	-9.642156697605336e-23
6.129999999999914	313.084467679974	-6473.542404366229	9358.56538380569	0	0.93	0	-5.6830559034028	-25.36166176959822	11.76210014544661	25.89301682692777	0.4519183969041843	-4.235605978348092	0	0	20.28732657743016	6.4555932958987	-2.09789884244592	0.02465664272530897	0.0004303395980445493	25.95350657227962	0	0	0	0	0	0	0	0	0	0	0	0	0	0	0	0	0	0	0
6.139999999999914	313.1047346532999	-6473.573232711687	9358.378816965978	0	0.93	0	-6.306062762489895	-25.32037477585982	11.79197689758686	26.05752782972882	0.4547896555588202	-4.360212902866079	0	0	20.36934736709927	6.299463877778277	-2.073996548539791	0.02471162597615099	0.0004312992368051924	25.91700669713281	0	0	0	0	0	0	0	0	1.314333436577668e-38	0	0	0	0	0	0	6.272538112810592e-46	7.84067264101324e-46	0	0
6.149999999999913	313.1436293773906	-6473.616887643767	9358.20869419492	0	0.93	0	-6.914018260515189	-25.22515684405179	11.8245031071321	26.15130760603119	0.4564264214270803	-4.403535908204771	0	0	20.45685148613575	6.138428741981155	-2.026982988873543	0.02464431034016494	0.000430124357319162	25.81915722562522	0	0	0	0	0	0	0	0	0	0	0	0	0	0	0	0	0	0	0
6.159999999999913	313.2564440397418	-6473.693692602993	9358.039705807349	0	0.93	0	-7.586887889596357	-25.04993297587227	11.82508893718406	26.17924835076571	0.456914079418157	-4.438911935101048	0	0	20.47547537451178	5.942374309381714	-1.937858107101953	0.02478611650819565	0.0004325993418509342	25.7683353702688	0	0	0	0	0	0	0	0	0	3.453487558564176e-39	0	0	0	0	0	0	0	0	0
6.169999999999913	313.3587816466799	-6473.761752647859	9357.866914015034	0	0.93	0	-8.141478860805192	-24.82505104906814	11.84645842854798	26.17834441262607	0.4568983027213859	-4.52334828222365	0	0	20.54785820561844	5.759580916522997	-1.862804279929758	0.02479199752046192	0.0004327019848783308	25.65416667924078	0	0	0	0	0	0	0	0	3.258779566421128e-46	4.679901482604777e-46	0	0	0	0	0	4.679901482604777e-46	4.679901482604777e-46	0	0
6.179999999999913	313.456124103059	-6473.820354727131	9357.67569654255	0	0.93	0	-8.543523549323476	-24.55572288867619	11.90006945061533	26.23380457873352	0.457866265223664	-4.652015931310356	-7.392496033042816e-22	-4.497635563501269e-27	20.62897495001917	5.569835141751269	-1.804148397361356	0.02482208138027664	0.0004332270472838059	25.5198166819765	9.394206168587845e-24	-6.025551479831656e-27	-7.371147416462167e-29	-5.140329520759615e-27	-5.91995007974799e-29	1.658572609207879e-21	8.927523724053695e-24	-8.636395431005174e-18	0	0	1.828937001880186e-26	-3.540658429307232e-27	2.325004060352157e-16	8.320784196774855e-19	-6.113760407825023e-18	0	0	1.354801174995507e-27	1.432689623907706e-27
